#!OML:ASF X:\für Bonn\!DataBase\2005_08_10_Bjorn_Final\c3d\bjorn.ASF
:FULLY-SPECIFIED
:DEGREES
98
root 1.14408 18.9444 4.24646 -218.9 -47.0958 206.032
lowerback 39.2589 -0.837942 -0.762171
upperback 23.1563 -7.95439 0.966231
thorax 6.98264 -7.01138 3.24115
lowerneck -10.5525 -7.8902 -2.80407
upperneck -1.05153 -12.2016 21.9775
head 3.11483 -6.03985 6.32828
rclavicle 1.74931e-014 -3.33958e-014
rhumerus -40.6345 0.415107 -84.2702
rradius 19.3042
rwrist 18.9948
rhand -2.42289 10.9877
rfingers 7.12502
rthumb 23.2677 -17.6264
lclavicle 1.74931e-014 -3.33958e-014
lhumerus 74.641 -23.2 73.6118
lradius 107.58
lwrist -0.793582
lhand -49.9243 -21.7369
lfingers 7.12502
lthumb -22.5164 6.97023
rfemur -91.9111 -12.0739 23.5434
rtibia 131.781
rfoot 2.95951 20.4677
rtoes -11.5613
lfemur 1.68311 -19.6301 -6.61387
ltibia 32.3613
lfoot -1.01428 -26.1796
ltoes 20.3671
99
root 1.13933 18.9097 4.24957 -218.88 -46.8476 205.927
lowerback 39.292 -0.810911 -0.700442
upperback 23.1636 -7.92247 0.925222
thorax 6.96797 -6.99269 3.15933
lowerneck -10.5121 -7.94245 -2.60365
upperneck -1.24363 -12.2816 21.9895
head 3.04967 -6.10547 6.29602
rclavicle -5.725e-014 2.54444e-014
rhumerus -40.5509 0.44045 -84.2019
rradius 19.2724
rwrist 18.9973
rhand -2.45258 11.089
rfingers 7.12502
rthumb 23.2392 -17.5288
lclavicle -5.725e-014 2.54444e-014
lhumerus 74.1955 -23.1501 73.567
lradius 107.943
lwrist -0.746989
lhand -49.9976 -21.9147
lfingers 7.12502
lthumb -22.5868 6.78388
rfemur -92.0507 -11.7679 23.8225
rtibia 131.807
rfoot 3.44077 20.4697
rtoes -11.3655
lfemur 1.46948 -19.6528 -6.64986
ltibia 33.1193
lfoot -1.62827 -26.0614
ltoes 19.9938
100
root 1.13434 18.8748 4.25109 -218.88 -46.5752 205.8
lowerback 39.3515 -0.770425 -0.645838
upperback 23.1566 -7.87404 0.881661
thorax 6.92766 -6.96552 3.07794
lowerneck -10.4043 -7.99811 -2.47413
upperneck -1.45182 -12.3594 22.0777
head 2.97875 -6.17458 6.30224
rclavicle -6.52014e-014 3.65764e-014
rhumerus -40.494 0.463765 -84.1493
rradius 19.2287
rwrist 18.9612
rhand -2.48267 11.1954
rfingers 7.12502
rthumb 23.2104 -17.426
lclavicle -6.52014e-014 3.65764e-014
lhumerus 73.7251 -23.0826 73.5511
lradius 108.247
lwrist -0.678903
lhand -50.0152 -21.9145
lfingers 7.12502
lthumb -22.6037 6.78206
rfemur -92.079 -11.4194 24.0747
rtibia 131.823
rfoot 3.92528 20.4605
rtoes -11.0242
lfemur 1.31841 -19.643 -6.69322
ltibia 33.8525
lfoot -2.10726 -25.9581
ltoes 20.0484
101
root 1.12813 18.8386 4.25412 -218.866 -46.2896 205.668
lowerback 39.3842 -0.73577 -0.569206
upperback 23.1718 -7.83437 0.841569
thorax 6.92112 -6.94421 2.98616
lowerneck -10.363 -8.05319 -2.31519
upperneck -1.64929 -12.4391 22.1175
head 2.91654 -6.24078 6.28601
rclavicle 1.43125e-014 -8.5875e-014
rhumerus -40.3937 0.458392 -84.1107
rradius 19.2284
rwrist 18.821
rhand -2.57564 11.3114
rfingers 7.12502
rthumb 23.1212 -17.3212
lclavicle 1.43125e-014 -8.5875e-014
lhumerus 73.2849 -23.0036 73.5405
lradius 108.512
lwrist -0.649335
lhand -50.1054 -21.687
lfingers 7.12502
lthumb -22.6903 6.99905
rfemur -92.0917 -11.0858 24.3161
rtibia 131.83
rfoot 4.40105 20.4774
rtoes -10.909
lfemur 1.16566 -19.6419 -6.74024
ltibia 34.5872
lfoot -2.62365 -25.8351
ltoes 19.9853
102
root 1.12208 18.8023 4.25614 -218.862 -46.0052 205.529
lowerback 39.4258 -0.711621 -0.505724
upperback 23.1741 -7.80734 0.792601
thorax 6.89753 -6.92817 2.89747
lowerneck -10.3169 -8.10658 -2.2039
upperneck -1.81112 -12.5175 22.1799
head 2.86875 -6.30288 6.28427
rclavicle 2.38542e-014 -1.90833e-014
rhumerus -40.3108 0.59211 -84.1498
rradius 19.2384
rwrist 18.4675
rhand -2.64385 11.3836
rfingers 7.12502
rthumb 23.0557 -17.2572
lclavicle 2.38542e-014 -1.90833e-014
lhumerus 72.83 -22.8807 73.5641
lradius 108.714
lwrist -0.594168
lhand -50.354 -21.2536
lfingers 7.12502
lthumb -22.9288 7.40297
rfemur -92.0624 -10.769 24.5431
rtibia 131.839
rfoot 4.81816 20.5483
rtoes -10.9369
lfemur 1.04197 -19.658 -6.81144
ltibia 35.3101
lfoot -3.15827 -25.674
ltoes 19.8273
103
root 1.11514 18.7653 4.25868 -218.823 -45.7057 205.372
lowerback 39.4096 -0.682032 -0.420591
upperback 23.1959 -7.76919 0.740893
thorax 6.91109 -6.90465 2.78516
lowerneck -10.2891 -8.16391 -2.06971
upperneck -2.01324 -12.5997 22.2414
head 2.81103 -6.3707 6.2784
rclavicle 6.20208e-014 0
rhumerus -40.1974 0.498876 -84.0852
rradius 19.2565
rwrist 18.4243
rhand -2.75445 11.5126
rfingers 7.12502
rthumb 22.9496 -17.1414
lclavicle 6.20208e-014 0
lhumerus 72.4019 -22.7913 73.5828
lradius 108.919
lwrist -0.563855
lhand -50.7901 -20.7675
lfingers 7.12502
lthumb -23.3472 7.8366
rfemur -92.0553 -10.4815 24.766
rtibia 131.866
rfoot 5.22605 20.6396
rtoes -11.3059
lfemur 0.902838 -19.6662 -6.88243
ltibia 36.0222
lfoot -3.64728 -25.4971
ltoes 19.8625
104
root 1.10706 18.727 4.26072 -218.821 -45.3863 205.242
lowerback 39.4032 -0.657437 -0.31169
upperback 23.2221 -7.73432 0.698437
thorax 6.92687 -6.88312 2.67135
lowerneck -10.3318 -8.22233 -1.93762
upperneck -2.17636 -12.6936 22.2991
head 2.77798 -6.43765 6.26692
rclavicle -8.90555e-014 -9.38264e-014
rhumerus -40.0224 0.261923 -83.9407
rradius 19.1651
rwrist 18.4887
rhand -2.89374 11.787
rfingers 7.12502
rthumb 22.8159 -16.8836
lclavicle -8.90555e-014 -9.38264e-014
lhumerus 71.9693 -22.6634 73.604
lradius 109.113
lwrist -0.544419
lhand -51.2951 -20.0411
lfingers 7.12502
lthumb -23.8316 8.50063
rfemur -92.0135 -10.2538 25.0037
rtibia 131.903
rfoot 5.65656 20.7504
rtoes -11.6748
lfemur 0.799606 -19.6163 -6.91069
ltibia 36.7053
lfoot -4.13162 -25.3707
ltoes 19.7596
105
root 1.09897 18.6923 4.26436 -218.727 -45.1041 205.035
lowerback 39.368 -0.629154 -0.268599
upperback 23.2194 -7.70029 0.66579
thorax 6.92371 -6.86379 2.60333
lowerneck -10.3048 -8.28971 -1.85876
upperneck -2.38257 -12.7779 22.3515
head 2.72211 -6.5055 6.26724
rclavicle 2.38542e-014 1.59028e-015
rhumerus -39.8151 -0.0921748 -83.661
rradius 19.0262
rwrist 18.7305
rhand -2.96845 12.1303
rfingers 7.12502
rthumb 22.7442 -16.5491
lclavicle 2.38542e-014 1.59028e-015
lhumerus 71.5365 -22.5422 73.6983
lradius 109.236
lwrist -0.504906
lhand -51.7394 -19.3233
lfingers 7.12502
lthumb -24.2577 9.16215
rfemur -92.0154 -10.0822 25.171
rtibia 131.948
rfoot 6.07799 20.867
rtoes -12.3005
lfemur 0.659761 -19.5085 -6.98655
ltibia 37.3471
lfoot -4.56832 -25.2795
ltoes 19.7541
